<?xml version="1.0" standalone="no"?>
<!DOCTYPE svg PUBLIC "-//W3C//DTD SVG 20010904//EN"
 "http://www.w3.org/TR/2001/REC-SVG-20010904/DTD/svg10.dtd">
<svg version="1.0" xmlns="http://www.w3.org/2000/svg"
 width="500.000000pt" height="500.000000pt" viewBox="0 0 500.000000 500.000000"
 preserveAspectRatio="xMidYMid meet">

<g transform="translate(0.000000,500.000000) scale(0.100000,-0.100000)"
fill="#000000" stroke="none">
<path d="M2345 4225 c-96 -20 -272 -80 -374 -126 -199 -92 -338 -207 -767
-634 -99 -99 -101 -102 -146 -215 -61 -152 -83 -287 -75 -455 21 -403 154
-649 602 -1114 210 -217 496 -454 635 -525 77 -40 227 -86 278 -86 114 0 263
61 452 185 285 186 520 400 737 670 219 274 312 459 385 770 20 86 23 124 22
280 -1 138 -5 193 -18 235 -21 70 -30 84 -49 77 -15 -6 -26 -50 -29 -117 -3
-86 -44 -222 -83 -282 -14 -21 -25 -46 -25 -57 0 -19 -39 -75 -40 -56 0 5 -10
-8 -21 -30 -35 -65 -155 -185 -236 -236 -52 -33 -98 -53 -146 -64 -38 -9 -78
-20 -89 -26 -16 -9 -18 -6 -18 26 0 34 -1 35 -22 24 -13 -6 -36 -24 -53 -40
-28 -26 -33 -27 -73 -18 -24 5 -67 12 -95 15 -139 13 -255 71 -368 183 -125
125 -176 242 -167 384 9 139 82 241 201 281 62 21 99 16 178 -25 63 -32 92
-135 49 -174 -20 -18 -23 -18 -75 -1 -30 9 -57 21 -60 26 -20 32 -65 -8 -65
-56 0 -78 54 -144 155 -191 55 -25 70 -28 173 -28 l112 0 84 90 c98 104 139
173 166 281 60 234 -10 480 -195 687 -152 170 -278 251 -495 318 -92 28 -122
32 -240 35 -90 2 -158 -2 -205 -11z m298 -59 c159 -30 298 -82 394 -147 251
-170 382 -373 400 -619 14 -204 -79 -386 -235 -458 -99 -46 -240 -31 -308 33
-47 44 -43 56 10 37 43 -16 47 -16 90 5 61 30 79 67 74 149 -3 51 -10 72 -35
106 -46 64 -108 99 -188 105 -61 5 -71 3 -140 -31 -50 -25 -86 -51 -108 -79
-171 -210 -129 -502 104 -721 142 -133 307 -196 519 -196 233 0 396 74 570
256 146 154 208 279 236 479 6 43 8 46 15 25 27 -91 -21 -421 -88 -605 -107
-295 -442 -714 -803 -1007 -110 -88 -258 -188 -280 -188 -12 1 -11 4 4 15 10
8 24 16 30 18 6 2 8 7 5 11 -4 4 -24 -5 -45 -19 -22 -15 -85 -50 -141 -78 -98
-48 -108 -51 -190 -53 l-88 -3 82 9 c126 13 236 68 483 243 47 34 104 79 127
101 42 39 42 40 22 57 -11 10 -20 21 -20 26 0 10 37 21 79 22 24 1 44 12 75
41 41 38 41 40 17 40 -15 0 -31 -5 -36 -10 -27 -27 -362 -39 -513 -20 -139 18
-155 30 -472 348 -157 158 -316 320 -353 360 l-67 73 2 230 c1 161 -2 234 -10
242 -27 27 9 107 47 107 9 0 134 120 278 267 l261 267 79 7 c143 13 346 10
400 -6 56 -16 184 -100 227 -149 27 -30 27 -29 -3 17 -35 53 -127 127 -205
163 -48 23 -59 24 -283 24 l-234 0 -306 -311 c-169 -171 -310 -316 -314 -322
-5 -7 -6 -133 -2 -282 l6 -270 33 -40 c18 -22 157 -168 309 -323 152 -156 283
-296 290 -310 8 -15 23 -36 35 -46 12 -11 21 -31 21 -48 0 -64 85 -110 134
-73 30 22 62 18 85 -11 l21 -27 133 6 c76 3 153 12 182 21 28 9 56 16 63 16
19 0 14 -16 -5 -17 -10 -1 -43 -9 -73 -17 -30 -9 -71 -16 -91 -16 -20 0 -53
-7 -72 -15 -20 -8 -61 -15 -92 -15 -30 0 -55 -4 -55 -10 0 -5 -11 -17 -24 -25
-32 -21 -74 -10 -95 26 -11 20 -24 29 -42 29 -15 0 -37 12 -53 29 -24 25 -33
28 -66 24 -32 -5 -43 -1 -64 20 -14 14 -26 34 -26 44 0 10 -19 33 -42 51 -24
18 -180 174 -348 346 l-306 313 -2 336 -1 336 27 33 c14 18 163 170 330 338
167 168 308 313 313 323 8 14 5 17 -16 17 -21 0 -60 -32 -170 -137 -80 -78
-143 -147 -144 -157 -2 -29 -41 -66 -70 -66 -20 0 -51 -26 -137 -118 -61 -64
-129 -139 -152 -165 l-42 -48 0 -372 0 -371 267 -271 c147 -148 317 -319 377
-380 60 -60 104 -111 98 -113 -24 -8 -139 98 -456 418 l-328 332 4 392 c2 228
8 398 13 407 6 9 75 84 154 167 132 137 145 153 145 187 1 29 7 43 29 58 24
19 31 20 59 9 l31 -12 131 137 131 136 225 -2 c128 -1 240 3 259 9 27 7 38 6
50 -4 10 -8 52 -16 106 -19 50 -3 103 -10 119 -17 58 -22 37 1 -30 32 -68 32
-73 33 -254 39 -102 4 -265 8 -362 8 l-178 1 -296 -297 c-163 -164 -316 -321
-341 -350 l-45 -52 -5 -423 -4 -423 147 -155 c252 -266 262 -277 224 -247 -19
15 -44 31 -55 36 -11 5 -93 83 -182 173 l-162 163 -4 446 -4 447 74 83 c41 46
187 197 325 334 138 138 257 260 266 273 13 20 13 22 -7 22 -11 0 -40 -17 -63
-37 -82 -70 -348 -338 -348 -349 0 -23 -41 -62 -72 -69 -25 -5 -56 -33 -133
-119 l-100 -113 3 -114 c2 -81 8 -123 19 -146 15 -29 15 -33 0 -57 -14 -21
-18 -66 -22 -293 -3 -148 -1 -290 3 -315 7 -35 22 -61 63 -106 47 -52 58 -60
81 -55 21 4 34 -1 58 -25 16 -17 30 -39 30 -49 0 -10 52 -69 114 -131 104
-104 116 -113 135 -102 43 22 101 -14 101 -64 1 -24 16 -47 66 -101 59 -64 66
-68 78 -52 17 22 68 22 88 0 23 -26 30 -60 18 -82 -9 -17 -2 -29 52 -86 55
-58 66 -65 100 -65 26 0 38 4 38 14 0 21 39 46 71 46 19 0 37 -11 57 -36 18
-21 35 -33 42 -29 15 10 62 -3 55 -15 -3 -6 -20 -10 -37 -10 -21 0 -43 -11
-69 -35 -22 -19 -44 -35 -50 -35 -18 0 -53 22 -68 43 -11 15 -22 18 -50 15
-34 -5 -39 -1 -104 72 -59 65 -73 76 -96 72 -34 -5 -81 31 -81 63 0 13 -15 38
-33 57 -18 18 -47 50 -64 71 -27 34 -34 37 -51 28 -33 -18 -61 -13 -88 15 -18
17 -24 32 -20 47 4 17 -5 32 -42 67 -26 25 -77 77 -115 117 -51 54 -72 70 -87
66 -27 -7 -66 20 -86 59 -9 18 -47 66 -83 108 l-67 76 1 312 2 312 -24 15
c-30 20 -29 50 3 82 27 27 27 27 21 145 l-5 117 104 115 103 115 -6 49 c-5 44
-3 51 18 66 26 18 61 21 88 6 15 -8 48 21 202 176 112 112 194 187 209 190 14
3 32 9 40 14 59 37 85 44 192 55 80 9 122 18 133 28 30 30 190 34 310 7 35 -8
38 -7 21 5 -31 23 -115 37 -241 41 -145 4 -204 -6 -358 -57 -287 -97 -389
-168 -743 -516 -99 -98 -192 -194 -205 -213 l-24 -35 5 -470 5 -470 59 -90
c33 -49 95 -133 137 -185 78 -96 400 -427 519 -533 l65 -59 -75 63 c-41 34
-108 93 -148 130 -41 38 -78 66 -83 63 -6 -3 -5 -11 2 -20 6 -8 9 -14 5 -14
-7 0 -189 188 -285 295 -149 166 -259 347 -310 507 -60 191 -68 499 -16 658
35 109 46 130 113 213 56 69 393 395 506 489 191 160 473 288 700 318 44 6 82
13 85 16 7 6 27 4 154 -20z m-1337 -1395 c-3 -232 -9 -417 -15 -420 -5 -3 -11
-15 -14 -26 -2 -11 -5 179 -6 423 -1 318 2 449 10 465 l12 21 9 -24 c6 -15 7
-198 4 -439z m631 -1305 c9 -15 -166 145 -192 175 -11 13 26 -18 83 -70 56
-51 105 -99 109 -105z m478 -44 c-3 -3 -11 0 -18 7 -9 10 -8 11 6 5 10 -3 15
-9 12 -12z m-275 -59 c0 -8 -38 17 -51 33 -9 11 -2 9 19 -6 17 -13 32 -25 32
-27z m626 -122 c-3 -5 -20 -14 -37 -20 -27 -9 -30 -9 -19 4 6 7 21 16 33 18
12 2 23 5 25 6 2 0 1 -3 -2 -8z m-341 -21 c13 -5 14 -9 5 -9 -8 0 -24 4 -35 9
-13 5 -14 9 -5 9 8 0 24 -4 35 -9z"/>
<path d="M2281 3954 c-41 -7 -80 -19 -87 -26 -11 -11 44 -13 321 -13 183 0
336 3 339 6 4 3 -22 14 -56 25 -79 23 -402 28 -517 8z"/>
<path d="M2058 3424 c-189 -190 -344 -347 -346 -349 -2 -2 -6 -145 -8 -319
l-5 -316 62 -67 c136 -148 602 -623 611 -623 5 0 19 7 31 15 22 16 17 21 -241
283 -145 147 -295 302 -333 345 l-69 77 0 264 c0 145 3 279 7 297 5 27 69 97
326 357 l320 322 262 0 c201 0 273 -3 310 -15 56 -16 66 -14 32 8 -49 32 -166
60 -222 53 -32 -4 -56 -2 -60 4 -4 6 -71 10 -170 10 l-164 0 -343 -346z"/>
<path d="M2633 3563 l-162 -3 -248 -251 c-219 -221 -248 -254 -248 -282 0 -49
-14 -76 -41 -83 l-24 -6 0 -213 0 -213 239 -249 c335 -348 461 -470 507 -489
50 -21 343 -35 494 -23 184 15 232 32 305 111 22 23 31 35 20 27 -39 -32 -141
-68 -218 -79 -123 -16 -453 -13 -514 5 -55 16 -195 126 -336 264 -135 131
-427 440 -427 452 0 27 83 -45 330 -289 287 -283 383 -366 445 -385 26 -8 116
-12 260 -12 196 0 228 2 291 21 78 24 116 42 154 75 18 15 20 19 7 15 -11 -3
-58 -14 -105 -23 -51 -9 -96 -24 -108 -35 -28 -25 -61 -23 -80 7 -15 24 -21
25 -108 25 -89 0 -92 -1 -118 -30 -14 -16 -36 -30 -48 -30 -12 0 -35 14 -52
30 -24 25 -38 30 -76 30 l-47 0 -200 191 c-110 106 -256 242 -325 304 -69 62
-132 121 -141 131 -14 16 -17 55 -21 242 l-5 223 28 37 c37 51 397 415 431
436 21 14 63 20 195 27 92 5 183 6 201 3 39 -8 41 1 4 20 -39 20 -74 23 -259
19z"/>
<path d="M1610 3535 c-15 -18 -6 -45 13 -45 8 0 20 7 27 15 10 12 10 18 0 30
-16 19 -24 19 -40 0z"/>
<path d="M1921 3516 c-9 -10 -8 -16 4 -26 19 -16 41 1 32 24 -8 20 -21 20 -36
2z"/>
<path d="M2700 3476 c-91 -7 -174 -17 -185 -23 -11 -6 -116 -108 -233 -227
l-213 -216 3 -205 3 -204 40 -42 c22 -22 63 -56 90 -74 28 -18 127 -108 220
-200 312 -308 320 -315 369 -315 30 0 48 6 61 20 25 27 61 25 89 -5 22 -23 30
-25 122 -25 88 0 101 2 112 20 16 26 63 26 86 1 9 -10 25 -17 34 -15 9 1 55 8
101 15 76 11 87 15 125 51 l41 40 -48 -28 c-37 -20 -51 -24 -57 -14 -15 25 3
51 59 80 62 34 182 128 189 148 2 7 -43 -18 -100 -56 -56 -38 -119 -77 -138
-87 -19 -10 -45 -26 -58 -36 -20 -16 -21 -18 -5 -21 15 -3 13 -7 -12 -23 -26
-18 -44 -20 -185 -17 -206 4 -403 27 -457 53 -23 11 -61 38 -85 59 l-43 39 94
-35 c181 -68 336 -82 514 -46 54 11 101 23 105 27 4 4 -49 4 -118 -1 -168 -12
-277 -10 -325 5 -64 21 -248 103 -274 123 -28 21 -44 14 -35 -15 l7 -22 -23
20 c-43 38 -170 187 -170 201 0 24 47 -9 112 -80 39 -43 64 -63 68 -56 8 13 4
14 67 -9 28 -9 62 -14 81 -11 l32 5 -81 60 c-44 33 -100 80 -123 105 -36 38
-47 45 -75 42 -21 -2 -31 0 -27 7 4 6 1 9 -8 5 -8 -3 -25 8 -43 30 -33 42 -40
44 -46 14 -3 -22 -4 -21 -16 7 -33 78 -53 184 -54 285 -1 102 0 108 36 184 69
145 181 273 310 353 31 20 56 38 53 40 -2 2 -28 -7 -57 -20 -73 -32 -184 -123
-296 -241 -77 -81 -92 -102 -87 -121 7 -29 -11 -63 -39 -74 -22 -8 -22 -13
-22 -188 l0 -179 28 -33 c15 -18 27 -39 27 -47 0 -13 -5 -12 -27 4 -69 49 -68
45 -66 255 1 152 -1 195 -13 211 -19 28 -18 49 5 77 12 15 30 24 48 24 23 0
44 17 110 86 113 120 224 224 259 242 41 21 155 41 163 29 4 -7 25 -7 61 0 95
17 263 -25 318 -81 41 -41 27 -12 -21 44 -41 48 -108 83 -168 89 -24 2 -118
-1 -209 -8z"/>
<path d="M1152 3208 c-5 -7 -18 -38 -29 -68 -15 -47 -18 -88 -18 -285 0 -210
2 -237 23 -309 13 -44 27 -86 32 -95 6 -10 10 130 10 377 0 215 -2 392 -4 392
-2 0 -8 -6 -14 -12z"/>
<path d="M3216 3054 c-25 -21 -67 -43 -115 -58 l-76 -24 53 -1 c59 -1 130 29
171 73 39 42 12 50 -33 10z"/>
<path d="M2165 3020 c-8 -14 3 -30 21 -30 8 0 14 9 14 20 0 21 -24 28 -35 10z"/>
<path d="M1895 3009 c-4 -6 -5 -12 -2 -15 2 -3 7 2 10 11 7 17 1 20 -8 4z"/>
<path d="M1362 2923 c2 -10 12 -18 23 -18 11 0 21 8 23 18 3 13 -3 17 -23 17
-20 0 -26 -4 -23 -17z"/>
<path d="M3659 2113 c-32 -39 -44 -57 -32 -50 13 8 57 67 50 67 -2 0 -10 -8
-18 -17z"/>
<path d="M1550 2070 c0 -23 26 -38 41 -23 14 14 0 43 -22 43 -12 0 -19 -7 -19
-20z"/>
<path d="M2879 1964 c-16 -20 0 -49 27 -49 22 0 31 30 14 50 -16 19 -24 19
-41 -1z"/>
<path d="M3207 1963 c-11 -10 -8 -41 5 -49 14 -9 38 23 31 42 -5 15 -25 19
-36 7z"/>
<path d="M1887 1767 c-8 -22 16 -50 39 -45 13 2 19 12 19 28 0 20 -6 26 -26
28 -16 2 -29 -3 -32 -11z"/>
<path d="M2416 1727 c-10 -7 -17 -22 -14 -33 4 -24 41 -30 58 -9 11 14 10 19
-6 36 -17 16 -22 17 -38 6z"/>
<path d="M2650 1605 c-16 -19 -3 -55 19 -55 10 0 24 7 31 15 10 13 10 19 -5
35 -22 24 -29 25 -45 5z"/>
<path d="M2144 1558 c-4 -15 -1 -25 11 -34 21 -16 41 -9 48 16 10 39 -46 57
-59 18z"/>
<path d="M2474 1365 c-19 -29 -12 -45 21 -45 31 0 52 35 34 56 -17 21 -36 17
-55 -11z"/>
<path d="M3847 3183 c-13 -12 -7 -51 8 -57 40 -15 63 33 26 54 -23 12 -26 12
-34 3z"/>
<path d="M3881 2954 c0 -11 3 -14 6 -6 3 7 2 16 -1 19 -3 4 -6 -2 -5 -13z"/>
</g>
</svg>
